<?xml version="1.0" standalone="no"?>
<!DOCTYPE svg PUBLIC "-//W3C//DTD SVG 20010904//EN"
 "http://www.w3.org/TR/2001/REC-SVG-20010904/DTD/svg10.dtd">
<svg version="1.0" xmlns="http://www.w3.org/2000/svg"
 width="833.000000pt" height="833.000000pt" viewBox="0 0 833.000000 833.000000"
 preserveAspectRatio="xMidYMid meet">
<metadata>
Created by potrace 1.11, written by Peter Selinger 2001-2013
</metadata>
<g transform="translate(0.000000,833.000000) scale(0.100000,-0.100000)"
fill="#000000" stroke="none">
<path d="M0 6255 l0 -415 4165 0 4165 0 0 415 0 415 -4165 0 -4165 0 0 -415z"/>
<path d="M0 4170 l0 -830 4165 0 4165 0 0 830 0 830 -4165 0 -4165 0 0 -830z
m2619 715 c101 -24 185 -71 270 -151 90 -85 149 -178 194 -308 31 -88 32 -96
32 -256 0 -160 -1 -168 -32 -256 -45 -130 -104 -223 -194 -308 -127 -120 -267
-173 -425 -163 -262 18 -487 226 -565 523 -29 111 -29 297 0 408 96 364 407
584 720 511z"/>
<path d="M2415 4740 c-72 -15 -94 -27 -88 -49 3 -14 -3 -23 -22 -34 l-28 -14
33 -7 c18 -3 35 -4 38 -1 3 3 -2 5 -11 5 -9 0 -17 4 -17 9 0 13 37 24 50 16 6
-4 9 -1 8 6 -4 15 33 27 84 28 31 1 35 4 31 21 -3 11 0 20 6 20 6 0 10 -3 10
-7 -4 -25 4 -33 34 -34 46 -1 82 -14 80 -27 -2 -6 4 -9 12 -6 7 3 22 1 32 -4
16 -10 15 -12 -10 -21 -41 -16 -57 -13 -57 8 0 11 -4 23 -10 26 -5 3 -7 0 -4
-8 3 -8 1 -18 -5 -21 -14 -9 -62 4 -55 15 3 5 0 9 -5 9 -6 0 -11 -7 -11 -15 0
-8 -4 -15 -10 -15 -5 0 -10 7 -10 15 0 8 -5 15 -11 15 -5 0 -8 -4 -5 -9 6 -9
-54 -25 -62 -16 -3 3 3 5 14 6 18 0 18 1 -1 9 -31 13 -37 12 -30 -9 4 -15 0
-21 -17 -24 -13 -2 2 -5 32 -7 30 -1 60 -1 65 0 6 2 19 2 30 2 63 -4 126 0
163 11 l43 13 -25 14 c-28 14 -37 46 -11 36 8 -3 15 -3 15 0 0 13 -97 44 -155
50 -56 6 -65 5 -65 -10 0 -9 -4 -16 -10 -16 -5 0 -7 7 -4 15 4 8 5 15 3 14 -2
-1 -22 -5 -44 -9z"/>
<path d="M2246 4625 c-12 -9 -15 -15 -7 -15 8 0 11 -8 8 -20 -4 -16 0 -19 24
-17 17 1 30 9 33 19 3 15 0 17 -22 11 -22 -5 -24 -3 -19 16 3 11 4 21 4 21 -1
0 -11 -7 -21 -15z"/>
<path d="M2737 4621 c5 -20 2 -21 -53 -17 -33 2 -46 1 -29 -1 16 -3 33 -9 36
-15 4 -6 22 -12 41 -14 18 -1 27 0 21 3 -9 3 -10 10 -3 23 7 13 6 21 -4 30
-12 9 -13 7 -9 -9z"/>
<path d="M2333 4603 c9 -2 23 -2 30 0 6 3 -1 5 -18 5 -16 0 -22 -2 -12 -5z"/>
<path d="M2419 4595 c40 -13 46 -22 32 -39 -9 -10 -30 -15 -69 -14 -78 2 -154
-31 -148 -64 3 -20 -1 -23 -30 -25 -18 -1 -41 -6 -51 -12 -14 -8 -7 -9 27 -4
39 5 43 4 33 -9 -7 -8 -10 -18 -6 -22 4 -4 0 -4 -10 0 -10 3 -17 1 -17 -5 0
-21 36 -10 110 34 41 25 80 43 87 40 7 -2 13 -1 13 4 0 5 12 11 28 14 31 7 52
-13 52 -50 0 -13 5 -23 11 -23 6 0 8 8 4 19 -3 11 0 23 6 27 7 4 9 3 6 -4 -10
-14 2 -42 18 -42 8 0 10 9 7 25 -3 16 0 25 8 25 10 0 10 3 0 15 -10 12 -10 18
0 30 7 9 15 13 18 10 3 -2 -1 -12 -9 -22 -12 -15 -12 -16 4 -10 15 6 17 3 12
-12 -3 -11 -2 -22 3 -25 6 -3 9 2 8 11 0 10 8 19 19 21 16 3 18 1 8 -9 -17
-17 -16 -29 2 -29 8 0 15 7 15 15 0 8 4 15 9 15 5 0 7 -10 4 -22 -4 -20 -3
-21 7 -5 6 9 15 17 20 17 5 0 7 -8 3 -17 -5 -14 -3 -16 7 -6 10 10 19 8 40 -7
15 -11 48 -29 74 -40 40 -17 46 -17 46 -4 0 11 -5 14 -17 10 -10 -4 -14 -4
-10 0 4 4 2 13 -4 21 -9 10 -7 13 7 13 30 0 64 -12 64 -21 0 -5 -8 -9 -17 -9
-14 0 -15 -2 -4 -9 11 -7 11 -9 0 -13 -9 -3 0 -12 21 -22 22 -11 28 -12 18 -3
-21 16 -24 32 -5 21 9 -6 9 -4 -1 8 -11 14 -10 17 5 20 27 6 -40 39 -83 41
-30 2 -34 5 -31 26 2 21 -5 28 -48 44 -71 26 -173 29 -198 4 -17 -17 -20 -17
-36 -3 -12 11 -16 25 -13 41 3 20 10 25 33 25 23 0 29 -5 30 -22 l0 -23 10 24
c7 17 15 22 29 18 11 -3 18 -1 15 3 -3 5 3 10 12 12 10 2 -33 3 -95 4 -91 0
-107 -2 -83 -11z m46 -85 c10 -11 16 -20 13 -20 -3 0 -13 9 -23 20 -10 11 -16
20 -13 20 3 0 13 -9 23 -20z m-125 0 c-20 -13 -63 -13 -55 0 3 6 21 10 38 10
24 0 28 -3 17 -10z m375 1 c10 -17 -9 -19 -40 -6 l-30 13 32 1 c17 1 34 -3 38
-8z m-453 -43 c-8 -8 -9 -4 -5 13 4 13 8 18 11 10 2 -7 -1 -18 -6 -23z m481
11 c4 -16 3 -18 -9 -8 -7 6 -11 15 -8 20 8 13 11 11 17 -12z"/>
<path d="M2150 4579 c-13 -9 -12 -10 3 -5 18 6 24 -9 7 -19 -5 -3 -10 -12 -9
-18 0 -9 2 -8 6 1 2 6 8 10 12 8 4 -3 8 6 9 20 2 26 -5 29 -28 13z"/>
<path d="M2409 4588 c-12 -39 7 -52 32 -22 12 15 11 16 -10 9 -16 -5 -21 -4
-17 4 4 6 5 11 2 11 -3 0 -6 -1 -7 -2z"/>
<path d="M2820 4578 c1 -16 30 -56 30 -41 0 7 -4 15 -10 18 -17 10 -11 25 8
19 14 -5 15 -4 2 5 -20 14 -30 14 -30 -1z"/>
<path d="M2550 4571 c0 -10 24 -21 43 -21 7 0 3 7 -7 15 -22 17 -36 19 -36 6z"/>
<path d="M2406 4465 c-3 -8 -12 -12 -21 -9 -8 3 -15 1 -15 -5 0 -7 -11 -9 -26
-7 -20 4 -27 0 -31 -14 -3 -11 -9 -18 -13 -15 -14 9 -80 -28 -80 -43 0 -12 3
-12 17 -1 9 8 14 9 11 4 -4 -6 3 -12 14 -12 16 -2 18 1 9 10 -19 19 -13 24 24
21 23 -1 33 1 28 9 -4 7 0 8 11 4 9 -4 15 -3 12 2 -3 5 5 16 18 24 18 12 26
13 36 4 9 -8 11 -8 7 -1 -4 7 0 14 8 18 8 3 15 10 15 16 0 15 -17 12 -24 -5z"/>
<path d="M2665 4431 c-3 -5 -1 -12 4 -15 5 -3 11 1 15 9 6 16 -9 21 -19 6z"/>
<path d="M2115 4420 c-3 -5 1 -10 10 -10 9 0 13 5 10 10 -3 6 -8 10 -10 10 -2
0 -7 -4 -10 -10z"/>
<path d="M2700 4411 c0 -5 7 -14 15 -21 8 -7 15 -20 16 -29 1 -9 4 -5 8 9 5
17 2 29 -8 37 -19 15 -31 16 -31 4z"/>
<path d="M2134 4394 c-10 -8 -14 -13 -7 -10 6 4 13 0 16 -6 4 -10 7 -11 18 0
10 9 10 12 0 12 -7 0 -9 5 -6 10 9 14 2 12 -21 -6z"/>
<path d="M2097 4374 c-3 -4 -3 -20 0 -37 5 -25 3 -29 -10 -24 -12 5 -19 -1
-23 -19 -4 -14 -4 -28 0 -31 3 -4 6 2 6 13 1 18 1 18 15 1 13 -18 14 -18 25 3
l11 21 25 -26 c17 -18 23 -35 20 -57 -4 -41 -30 -58 -87 -58 -74 0 -97 -36
-86 -133 5 -38 4 -48 -4 -37 -9 12 -10 12 -5 -3 3 -10 6 -21 6 -23 0 -3 5 -2
11 1 6 4 9 0 7 -8 -2 -9 6 -23 17 -32 11 -9 13 -13 5 -9 -24 13 25 -44 67 -78
21 -17 64 -48 96 -70 32 -22 81 -64 110 -95 71 -75 83 -80 113 -52 23 22 35
14 13 -8 -16 -16 69 -26 121 -14 23 5 49 7 57 4 8 -3 40 21 81 64 37 39 101
93 142 120 67 46 178 147 140 129 -8 -4 -5 1 8 11 16 13 21 24 16 38 -5 12 -4
16 3 12 7 -5 9 1 6 15 -4 19 -3 20 6 8 9 -12 10 -8 6 15 -2 17 -6 47 -9 69 -7
56 -30 76 -85 76 -26 0 -56 6 -67 14 -28 20 -29 68 -2 99 l22 24 18 -21 c10
-11 18 -16 17 -11 -3 23 2 36 12 30 6 -4 8 -14 4 -24 -4 -11 -3 -13 5 -5 13
13 3 44 -15 44 -8 0 -16 8 -18 18 -4 16 -5 16 -6 -1 0 -10 -6 -15 -12 -12 -5
4 -21 -6 -35 -22 -27 -31 -33 -20 -8 15 14 20 14 22 0 22 -9 0 -16 7 -16 16 0
9 -5 14 -12 12 -19 -7 -31 -68 -25 -130 6 -67 -7 -76 -30 -21 l-15 38 -19 -38
c-24 -46 -64 -52 -79 -12 -6 14 -15 37 -20 51 -13 34 -32 20 -49 -35 -10 -35
-17 -41 -46 -47 -61 -11 -85 1 -108 57 -25 59 -44 61 -63 5 -21 -60 -31 -67
-88 -64 l-51 3 -1 88 c0 65 -4 91 -15 98 -9 6 -15 4 -17 -6 -2 -8 -10 -15 -18
-15 -13 0 -13 -3 0 -22 25 -36 18 -44 -12 -15 -16 15 -31 24 -35 20 -13 -12
-7 33 6 47 9 11 8 11 -7 0 -18 -14 -19 -13 -13 3 7 18 5 21 -6 11z m-15 -233
c-23 -4 -47 -12 -53 -18 -7 -7 -10 -40 -7 -87 2 -52 0 -70 -6 -58 -16 26 -13
136 3 155 9 12 28 17 60 16 l46 -2 -43 -6z m891 -6 c21 -21 29 -79 17 -124 -5
-21 -9 -45 -7 -52 2 -8 2 -10 -1 -5 -2 4 -9 2 -14 -5 -7 -10 -8 -8 -2 6 12 32
16 149 5 164 -5 8 -29 18 -53 21 l-43 7 42 2 c24 0 48 -5 56 -14z m-903 -25
c0 -5 -4 -10 -10 -10 -5 0 -10 5 -10 10 0 6 5 10 10 10 6 0 10 -4 10 -10z m70
0 c0 -5 -4 -10 -10 -10 -5 0 -10 5 -10 10 0 6 5 10 10 10 6 0 10 -4 10 -10z
m735 0 c3 -5 1 -10 -4 -10 -6 0 -11 5 -11 10 0 6 2 10 4 10 3 0 8 -4 11 -10z
m35 0 c0 -5 -4 -10 -10 -10 -5 0 -10 5 -10 10 0 6 5 10 10 10 6 0 10 -4 10
-10z m40 0 c0 -5 -4 -10 -10 -10 -5 0 -10 5 -10 10 0 6 5 10 10 10 6 0 10 -4
10 -10z m-895 -30 c3 -5 1 -10 -4 -10 -6 0 -11 5 -11 10 0 6 2 10 4 10 3 0 8
-4 11 -10z m70 0 c3 -5 1 -10 -4 -10 -6 0 -11 5 -11 10 0 6 2 10 4 10 3 0 8
-4 11 -10z m800 0 c3 -5 1 -10 -4 -10 -6 0 -11 5 -11 10 0 6 2 10 4 10 3 0 8
-4 11 -10z m35 0 c0 -5 -5 -10 -11 -10 -5 0 -7 5 -4 10 3 6 8 10 11 10 2 0 4
-4 4 -10z m-910 -40 c0 -5 -2 -10 -4 -10 -3 0 -8 5 -11 10 -3 6 -1 10 4 10 6
0 11 -4 11 -10z m40 6 c0 -3 -4 -8 -10 -11 -5 -3 -10 -1 -10 4 0 6 5 11 10 11
6 0 10 -2 10 -4z m800 -6 c0 -5 -2 -10 -4 -10 -3 0 -8 5 -11 10 -3 6 -1 10 4
10 6 0 11 -4 11 -10z m40 0 c0 -5 -4 -10 -10 -10 -5 0 -10 5 -10 10 0 6 5 10
10 10 6 0 10 -4 10 -10z m-875 -30 c3 -5 1 -10 -4 -10 -6 0 -11 5 -11 10 0 6
2 10 4 10 3 0 8 -4 11 -10z m70 0 c3 -5 1 -10 -4 -10 -6 0 -11 5 -11 10 0 6 2
10 4 10 3 0 8 -4 11 -10z m765 0 c0 -5 -4 -10 -10 -10 -5 0 -10 5 -10 10 0 6
5 10 10 10 6 0 10 -4 10 -10z m65 0 c3 -5 1 -10 -4 -10 -6 0 -11 5 -11 10 0 6
2 10 4 10 3 0 8 -4 11 -10z m-465 -31 c0 -5 -12 -9 -27 -9 -31 0 -28 -5 10
-14 24 -6 27 -4 27 20 0 26 2 26 42 20 54 -9 58 -12 58 -47 0 -23 -5 -29 -22
-30 l-23 -2 23 -4 c33 -6 29 -38 -5 -39 -16 0 -44 -1 -63 -2 -67 -2 -90 0 -90
10 0 5 -4 6 -10 3 -21 -13 -30 6 -15 34 27 54 95 96 95 60z m-360 1 c0 -5 -5
-10 -11 -10 -5 0 -7 5 -4 10 3 6 8 10 11 10 2 0 4 -4 4 -10z m820 -10 c0 -5
-2 -10 -4 -10 -3 0 -8 5 -11 10 -3 6 -1 10 4 10 6 0 11 -4 11 -10z m-10 -24
c0 -3 -4 -8 -10 -11 -5 -3 -10 -1 -10 4 0 6 5 11 10 11 6 0 10 -2 10 -4z
m-170 -120 c0 -2 -8 -10 -17 -17 -16 -13 -17 -12 -4 4 13 16 21 21 21 13z
m-377 -115 c28 -11 28 -11 10 -36 -12 -16 -24 -23 -38 -19 -20 5 -20 5 -1 -10
11 -9 15 -16 9 -16 -14 0 -36 27 -39 47 -2 9 -15 28 -30 44 l-28 29 45 -14
c24 -7 57 -19 72 -25z m280 -13 l-53 -52 -21 23 c-26 28 -20 35 51 60 79 28
80 26 23 -31z m-113 -24 c14 -8 17 -13 8 -10 -10 3 -20 1 -23 -4 -10 -16 -35
-12 -35 5 0 8 -5 15 -11 15 -6 0 -9 -9 -6 -19 4 -15 1 -18 -12 -14 -9 3 -22
11 -29 16 -35 27 66 37 108 11z m-125 -14 c3 -6 -1 -7 -9 -4 -18 7 -21 14 -7
14 6 0 13 -4 16 -10z m235 6 c0 -2 -8 -10 -17 -17 -16 -13 -17 -12 -4 4 13 16
21 21 21 13z m-92 -52 c-4 -3 -12 5 -18 18 -12 22 -12 22 6 6 10 -10 15 -20
12 -24z m-88 1 c0 -13 -4 -14 -20 -5 -11 6 -20 13 -20 15 0 3 9 5 20 5 11 0
20 -7 20 -15z m50 11 c0 -2 -7 -9 -15 -16 -12 -10 -15 -10 -15 4 0 9 7 16 15
16 8 0 15 -2 15 -4z"/>
<path d="M2523 3953 c9 -2 23 -2 30 0 6 3 -1 5 -18 5 -16 0 -22 -2 -12 -5z"/>
<path d="M2420 3912 c0 -4 30 -8 66 -8 36 -1 61 2 55 5 -15 10 -121 12 -121 3z"/>
<path d="M2755 4370 c-3 -5 1 -10 9 -10 9 0 16 5 16 10 0 6 -4 10 -9 10 -6 0
-13 -4 -16 -10z"/>
<path d="M2010 4180 c-8 -5 -10 -10 -5 -10 6 0 17 5 25 10 8 5 11 10 5 10 -5
0 -17 -5 -25 -10z"/>
<path d="M2058 4183 c7 -3 16 -2 19 1 4 3 -2 6 -13 5 -11 0 -14 -3 -6 -6z"/>
<path d="M2928 4183 c7 -3 16 -2 19 1 4 3 -2 6 -13 5 -11 0 -14 -3 -6 -6z"/>
<path d="M2961 4187 c2 -1 15 -11 29 -22 l25 -20 -19 23 c-11 12 -24 22 -29
22 -6 0 -8 -1 -6 -3z"/>
<path d="M2098 4173 c6 -2 18 -2 25 0 6 3 1 5 -13 5 -14 0 -19 -2 -12 -5z"/>
<path d="M2878 4173 c7 -3 16 -2 19 1 4 3 -2 6 -13 5 -11 0 -14 -3 -6 -6z"/>
<path d="M3011 4124 c0 -11 3 -14 6 -6 3 7 2 16 -1 19 -3 4 -6 -2 -5 -13z"/>
<path d="M1973 4060 c0 -25 2 -35 4 -22 2 12 2 32 0 45 -2 12 -4 2 -4 -23z"/>
<path d="M3022 4060 c0 -14 2 -19 5 -12 2 6 2 18 0 25 -3 6 -5 1 -5 -13z"/>
<path d="M0 2085 l0 -415 4165 0 4165 0 0 415 0 415 -4165 0 -4165 0 0 -415z"/>
</g>
</svg>
