<?xml version="1.0" standalone="no"?>
<!DOCTYPE svg PUBLIC "-//W3C//DTD SVG 20010904//EN"
 "http://www.w3.org/TR/2001/REC-SVG-20010904/DTD/svg10.dtd">
<svg version="1.0" xmlns="http://www.w3.org/2000/svg"
 width="500.000000pt" height="500.000000pt" viewBox="0 0 500.000000 500.000000"
 preserveAspectRatio="xMidYMid meet">
<metadata>
Created by potrace 1.11, written by Peter Selinger 2001-2013
</metadata>
<g transform="translate(0.000000,500.000000) scale(0.100000,-0.100000)"
fill="#000000" stroke="none">
<path d="M0 4585 l0 -415 2500 0 2500 0 0 415 0 415 -2500 0 -2500 0 0 -415z"/>
<path d="M0 2495 l0 -835 2500 0 2500 0 0 835 0 835 -2500 0 -2500 0 0 -835z
m2685 704 c361 -135 539 -582 392 -988 -74 -204 -242 -369 -432 -422 -64 -18
-216 -18 -280 0 -447 125 -633 750 -347 1167 93 136 247 241 392 268 61 11
216 -2 275 -25z"/>
<path d="M2439 3071 c8 -5 21 -7 30 -4 12 5 13 3 5 -6 -8 -8 -18 -9 -37 -2
-21 8 -27 7 -30 -7 -4 -16 -5 -16 -6 1 -1 20 -5 21 -32 6 -13 -7 -18 -17 -15
-27 5 -15 5 -15 -6 -1 -7 9 -19 14 -25 12 -10 -3 -9 -9 3 -21 15 -15 13 -17
-27 -36 -34 -17 -45 -28 -50 -52 -6 -31 -5 -32 27 -31 22 1 34 6 34 15 0 8 -6
12 -13 9 -20 -8 -41 9 -34 27 4 9 18 16 32 16 14 0 25 4 25 8 0 11 66 42 91
42 11 0 18 4 15 8 -3 5 9 8 27 8 26 -1 33 3 35 22 3 19 -1 22 -30 22 -23 0
-29 -3 -19 -9z"/>
<path d="M2510 3070 c0 -5 6 -10 13 -10 9 0 8 -3 -2 -9 -11 -7 -9 -10 8 -16
11 -3 25 -3 31 0 5 3 10 1 10 -4 0 -6 4 -11 9 -11 6 0 6 12 0 30 -9 24 -17 30
-40 30 -16 0 -29 -4 -29 -10z m41 -23 c-10 -9 -11 -8 -5 6 3 10 9 15 12 12 3
-3 0 -11 -7 -18z"/>
<path d="M2590 3061 c0 -5 3 -17 6 -26 6 -14 8 -14 28 2 11 10 15 11 9 3 -13
-14 -19 -39 -7 -27 4 3 12 1 20 -6 35 -31 44 -37 61 -36 12 0 7 6 -14 16 -18
9 -33 23 -33 30 0 7 -9 22 -20 33 -21 21 -50 27 -50 11z"/>
<path d="M2660 3040 c0 -5 5 -10 11 -10 5 0 7 5 4 10 -3 6 -8 10 -11 10 -2 0
-4 -4 -4 -10z"/>
<path d="M2400 2985 c0 -19 -6 -25 -22 -26 -13 -1 4 -5 37 -9 34 -4 65 -3 73
3 7 6 17 6 25 0 7 -6 38 -7 72 -3 33 4 49 8 36 9 -18 1 -22 5 -18 21 3 11 1
23 -4 26 -5 3 -9 0 -9 -5 0 -6 -8 -11 -17 -12 -16 0 -16 -1 1 -8 14 -5 16 -10
7 -15 -6 -4 -18 -2 -26 4 -8 6 -20 8 -26 4 -8 -5 -10 -2 -6 9 3 9 0 18 -9 21
-22 8 -43 -4 -37 -21 4 -11 2 -14 -6 -9 -6 4 -18 2 -26 -4 -8 -6 -20 -8 -26
-4 -9 5 -7 10 7 15 17 7 17 8 1 8 -10 1 -15 6 -12 11 3 6 1 10 -4 10 -6 0 -11
-11 -11 -25z m110 0 c0 -8 -4 -15 -10 -15 -5 0 -10 7 -10 15 0 8 5 15 10 15 6
0 10 -7 10 -15z"/>
<path d="M2737 2950 c5 -19 -4 -25 -34 -21 -7 1 -13 -4 -13 -11 0 -8 14 -14
33 -15 32 -1 33 0 29 33 -2 19 -8 34 -12 34 -5 0 -6 -9 -3 -20z"/>
<path d="M2424 2929 c-2 -4 5 -9 16 -12 11 -3 20 -12 20 -21 0 -19 -40 -30
-83 -22 -24 5 -28 3 -17 -5 12 -8 9 -9 -11 -5 -29 6 -89 -10 -89 -24 0 -5 5
-12 11 -15 21 -13 -20 -42 -60 -42 -21 0 -46 -5 -57 -11 -15 -9 -9 -10 31 -6
39 4 46 3 32 -6 -9 -6 -15 -15 -12 -21 3 -5 -1 -6 -9 -3 -10 4 -16 1 -16 -9 0
-10 7 -13 20 -10 14 4 20 0 20 -10 0 -17 24 -17 41 0 8 8 8 13 0 17 -6 4 -11
0 -11 -10 0 -13 -3 -14 -15 -4 -13 11 -4 19 58 56 76 46 87 50 87 33 0 -5 -4
-7 -10 -4 -6 3 -7 -1 -4 -9 4 -12 -1 -15 -22 -13 -20 1 -29 -3 -29 -13 -1 -8
-7 -14 -15 -12 -11 2 -10 -1 2 -11 10 -8 14 -18 10 -22 -4 -5 -2 -5 5 -1 7 4
9 14 6 24 -6 15 -5 15 10 3 16 -12 22 -8 18 13 -1 5 5 6 13 3 9 -4 15 -3 15 1
-3 20 3 23 19 11 15 -12 16 -12 6 1 -6 8 -11 22 -11 32 0 21 55 30 66 11 13
-24 60 -23 83 1 l20 21 -6 -22 c-4 -12 -2 -24 3 -28 7 -3 8 0 5 9 -9 23 19 30
60 16 26 -8 33 -15 29 -28 -5 -13 -3 -14 7 -5 10 9 21 6 49 -12 20 -13 53 -31
74 -40 34 -14 37 -14 37 1 0 10 -5 14 -16 10 -8 -3 -12 -2 -9 3 3 6 -3 15 -12
21 -14 9 -7 10 32 6 40 -4 46 -3 31 6 -11 6 -36 11 -57 11 -40 0 -81 29 -60
42 6 3 11 10 11 15 0 14 -60 30 -89 24 -20 -4 -23 -3 -11 5 11 8 7 10 -17 5
-42 -8 -83 2 -83 22 0 17 24 29 40 19 8 -5 8 -11 -1 -21 -9 -11 -7 -14 12 -13
13 0 19 3 12 5 -7 3 -10 11 -7 18 3 8 -3 17 -13 21 -23 9 -154 12 -159 4z
m108 -34 c3 -16 -1 -30 -13 -41 -18 -16 -20 -16 -38 0 -28 25 -17 66 19 66 21
0 29 -6 32 -25z m-47 -73 c-6 -7 -35 18 -35 31 0 5 9 2 20 -8 11 -10 18 -20
15 -23z m55 13 c-7 -8 -17 -15 -23 -15 -5 0 -2 9 8 20 21 23 35 19 15 -5z
m-210 1 c-36 -14 -55 -12 -45 5 4 5 23 9 43 8 l37 -1 -35 -12z m385 5 c10 -17
-9 -19 -45 -5 l-35 12 37 1 c20 1 39 -3 43 -8z m-368 -88 c0 -9 -4 -10 -14 -2
-7 6 -13 12 -13 14 0 1 6 2 13 2 8 0 14 -6 14 -14z"/>
<path d="M2151 2911 c-9 -6 -7 -10 8 -14 12 -3 21 -1 21 3 0 14 -15 19 -29 11z"/>
<path d="M2825 2910 c-4 -6 1 -20 9 -32 9 -12 16 -17 16 -11 0 7 -5 15 -12 19
-8 5 -6 9 7 14 16 6 17 7 2 13 -9 3 -19 2 -22 -3z"/>
<path d="M2403 2903 c4 -6 1 -14 -5 -16 -7 -3 -4 -6 7 -6 26 -1 52 16 41 26
-5 4 -11 2 -13 -5 -4 -10 -8 -10 -21 0 -10 8 -13 9 -9 1z"/>
<path d="M2550 2900 c0 -5 5 -10 10 -10 6 0 10 5 10 10 0 6 -4 10 -10 10 -5 0
-10 -4 -10 -10z"/>
<path d="M2230 2825 c0 -10 5 -13 13 -9 7 5 6 0 -3 -11 -13 -16 -13 -18 0 -13
18 6 20 40 3 46 -7 2 -13 -4 -13 -13z"/>
<path d="M2744 2825 c-3 -8 -3 -19 1 -25 11 -18 25 -11 25 15 0 27 -17 34 -26
10z"/>
<path d="M2410 2794 c0 -8 5 -12 10 -9 6 3 10 10 10 16 0 5 -4 9 -10 9 -5 0
-10 -7 -10 -16z"/>
<path d="M2585 2799 c-4 -6 -4 -13 -1 -16 3 -4 6 0 6 8 0 12 2 12 9 0 12 -19
38 -22 38 -5 0 17 -14 18 -20 2 -3 -8 -6 -6 -6 5 -1 19 -16 23 -26 6z"/>
<path d="M2470 2772 c0 -17 6 -22 24 -22 31 0 56 10 56 22 0 5 -6 6 -12 1 -23
-14 -43 -13 -55 4 -12 15 -13 15 -13 -5z"/>
<path d="M2490 2780 c0 -5 5 -10 10 -10 6 0 10 5 10 10 0 6 -4 10 -10 10 -5 0
-10 -4 -10 -10z"/>
<path d="M2665 2761 c-6 -11 9 -23 19 -14 9 9 7 23 -3 23 -6 0 -12 -4 -16 -9z"/>
<path d="M2115 2749 c-9 -14 -2 -20 14 -10 8 6 9 11 3 15 -6 3 -14 1 -17 -5z"/>
<path d="M2866 2751 c-3 -5 1 -11 9 -15 8 -3 15 -1 15 4 0 13 -18 22 -24 11z"/>
<path d="M2706 2741 c-3 -4 3 -16 14 -26 11 -10 17 -21 15 -25 -3 -5 5 -6 17
-2 16 4 19 2 13 -8 -5 -9 -4 -11 3 -6 21 13 14 38 -8 31 -22 -7 -28 10 -7 19
6 3 1 3 -12 0 -15 -4 -21 -2 -17 4 3 6 2 13 -3 16 -5 4 -12 2 -15 -3z"/>
<path d="M2123 2720 c-18 -11 -33 -24 -33 -30 0 -5 9 -1 21 11 11 11 23 18 27
15 3 -4 -3 -13 -14 -22 -15 -12 -13 -12 15 2 23 11 30 18 21 24 -10 6 -9 9 1
13 8 3 10 6 4 6 -5 1 -25 -8 -42 -19z"/>
<path d="M2273 2720 c2 -14 8 -23 13 -21 10 4 7 22 -7 36 -6 6 -8 1 -6 -15z"/>
<path d="M2833 2724 c0 -9 14 -22 31 -30 28 -14 29 -13 12 0 -11 9 -17 18 -14
22 4 3 16 -4 27 -15 12 -12 21 -17 21 -12 0 12 -21 28 -51 40 -20 7 -26 6 -26
-5z"/>
<path d="M2180 2676 c0 -9 -8 -16 -20 -16 l-20 0 20 -20 c32 -32 23 -47 -10
-15 -16 16 -30 25 -31 19 0 -5 -4 0 -9 11 -8 18 -9 19 -9 1 -1 -12 -6 -16 -16
-12 -10 3 -17 -3 -21 -20 -4 -14 -4 -28 0 -31 3 -4 6 1 6 10 0 9 5 19 12 23 7
4 8 3 4 -4 -4 -7 -2 -12 4 -12 6 0 8 -5 4 -12 -5 -9 -3 -9 9 1 9 7 14 17 11
22 -3 5 2 9 11 9 10 0 13 -5 9 -12 -4 -6 -3 -8 3 -5 23 14 40 -81 18 -100 -4
-5 -5 -2 0 6 6 10 4 12 -4 7 -9 -6 -9 -11 0 -22 13 -16 13 -16 -61 -14 -71 2
-92 -18 -96 -92 l-3 -53 8 53 c12 72 23 82 85 81 l51 -2 -42 -6 c-66 -11 -76
-24 -71 -101 3 -36 8 -74 12 -85 3 -11 -3 -2 -14 20 -13 27 -20 34 -20 20 0
-17 -2 -17 -10 -5 -5 8 -10 11 -10 5 0 -5 5 -17 10 -25 9 -13 10 -13 10 0 0
13 1 13 10 0 13 -20 13 -33 -1 -24 -8 4 -8 0 0 -15 7 -11 14 -21 17 -21 3 0 3
4 0 8 -3 5 0 9 7 9 7 0 13 -12 14 -26 1 -28 23 -48 131 -123 41 -27 97 -75
125 -105 66 -70 78 -76 106 -56 18 12 20 17 10 24 -10 6 -7 8 9 6 12 0 22 -5
22 -9 0 -4 9 -8 20 -8 12 0 20 -7 20 -16 0 -15 -2 -15 -23 -1 -18 11 -25 12
-34 2 -9 -10 -3 -14 28 -19 21 -3 57 -3 78 0 31 5 37 9 28 19 -9 10 -16 9 -34
-2 -21 -14 -23 -14 -23 1 0 9 8 16 20 16 11 0 20 4 20 8 0 4 10 9 22 9 16 2
19 0 9 -6 -10 -7 -8 -12 10 -24 28 -20 41 -14 105 56 28 30 84 77 125 105 73
50 148 110 119 96 -10 -5 -9 -1 3 14 11 11 16 25 13 30 -3 5 1 9 9 9 8 0 12
-4 9 -9 -3 -4 -3 -8 0 -8 3 0 10 10 17 21 8 15 8 19 0 15 -14 -9 -14 4 -1 24
9 13 10 13 10 0 0 -13 1 -13 10 0 5 8 10 20 10 25 0 6 -5 3 -10 -5 -8 -12 -10
-12 -10 5 0 14 -7 7 -20 -20 -11 -22 -17 -31 -14 -20 4 11 9 49 12 85 5 77 -5
90 -71 101 l-42 6 51 2 c62 1 73 -9 85 -81 l8 -53 -3 53 c-4 76 -25 94 -97 90
-32 -2 -56 -1 -53 1 2 2 -1 11 -8 18 -7 8 -13 24 -14 36 -3 31 16 78 29 70 6
-3 7 -1 3 5 -4 7 -1 12 9 12 9 0 14 -4 11 -9 -3 -5 2 -15 11 -22 12 -10 14
-10 9 -1 -4 7 -2 12 4 12 6 0 8 5 4 12 -4 7 -3 8 4 4 7 -4 12 -14 12 -23 0 -9
3 -14 6 -10 4 3 4 17 0 31 -4 17 -11 23 -21 20 -10 -4 -15 0 -15 12 0 11 -4
15 -8 9 -4 -5 -22 -23 -40 -39 -34 -32 -45 -19 -12 14 15 15 16 20 5 20 -7 0
-18 8 -24 18 -8 14 -12 15 -23 4 -9 -9 -13 -41 -13 -98 0 -86 -12 -105 -29
-46 -12 41 -21 40 -42 -4 -14 -28 -22 -34 -42 -32 -21 2 -29 12 -41 51 -8 26
-20 47 -27 47 -7 0 -21 -22 -31 -50 -17 -49 -33 -65 -33 -35 0 8 -3 16 -7 16
-60 9 -68 6 -65 -22 1 -3 -5 -6 -12 -6 -8 0 -25 24 -40 54 -14 29 -30 53 -35
53 -5 0 -17 -23 -26 -50 -19 -58 -40 -72 -98 -68 l-42 3 3 65 c1 36 -1 78 -6
94 -9 32 -32 48 -32 22z m209 -124 c-4 -2 -4 -14 1 -27 12 -32 -5 -81 -31 -88
-10 -3 -19 -12 -19 -21 0 -10 -6 -13 -16 -9 -9 3 -19 1 -23 -4 -3 -5 -22 -13
-41 -16 -30 -5 -32 -4 -15 6 53 32 97 94 130 182 l7 20 8 -20 c4 -11 4 -21 -1
-23z m224 -24 c3 -18 7 -43 10 -55 3 -13 2 -23 -4 -23 -5 0 -9 -7 -9 -15 0 -9
-6 -12 -15 -9 -9 4 -18 -1 -22 -13 -7 -16 -13 -18 -39 -11 l-31 8 32 34 c19
20 37 54 44 81 13 51 26 52 34 3z m130 -30 c-2 -5 0 -8 5 -8 13 0 9 -83 -5
-87 -6 -2 -21 5 -32 16 l-20 20 21 52 c17 41 23 48 29 33 3 -11 5 -22 2 -26z
m-678 -58 c3 -5 1 -10 -4 -10 -6 0 -11 5 -11 10 0 6 2 10 4 10 3 0 8 -4 11
-10z m75 0 c0 -5 -5 -10 -11 -10 -5 0 -7 5 -4 10 3 6 8 10 11 10 2 0 4 -4 4
-10z m735 0 c3 -5 1 -10 -4 -10 -6 0 -11 5 -11 10 0 6 2 10 4 10 3 0 8 -4 11
-10z m75 0 c0 -5 -5 -10 -11 -10 -5 0 -7 5 -4 10 3 6 8 10 11 10 2 0 4 -4 4
-10z m-860 -64 c0 -3 -4 -8 -10 -11 -5 -3 -10 -1 -10 4 0 6 5 11 10 11 6 0 10
-2 10 -4z m840 -6 c0 -5 -2 -10 -4 -10 -3 0 -8 5 -11 10 -3 6 -1 10 4 10 6 0
11 -4 11 -10z m-805 -30 c3 -5 1 -10 -4 -10 -6 0 -11 5 -11 10 0 6 2 10 4 10
3 0 8 -4 11 -10z m765 0 c0 -5 -5 -10 -11 -10 -5 0 -7 5 -4 10 3 6 8 10 11 10
2 0 4 -4 4 -10z m-342 -31 c2 -13 -3 -15 -23 -12 -25 5 -31 14 -18 27 12 11
38 2 41 -15z m-58 1 c0 -5 -7 -10 -15 -10 -8 0 -15 5 -15 10 0 6 7 10 15 10 8
0 15 -4 15 -10z m110 -10 c0 -5 -9 -10 -20 -10 -11 0 -20 5 -20 10 0 6 9 10
20 10 11 0 20 -4 20 -10z m-164 -16 c-5 -14 -4 -15 8 -5 16 14 46 4 46 -14 0
-10 -10 -12 -34 -8 -30 5 -35 3 -38 -18 -1 -13 -7 -23 -13 -22 -17 3 -15 17 5
51 21 34 37 43 26 16z m114 -23 c0 -14 -6 -17 -25 -13 -14 2 -25 11 -25 18 0
8 10 14 25 14 18 0 25 -5 25 -19z m50 4 c0 -8 -9 -15 -20 -15 -11 0 -20 7 -20
15 0 8 9 15 20 15 11 0 20 -7 20 -15z m-77 -38 c20 -1 37 1 37 6 0 4 9 7 20 7
33 0 24 -30 -10 -31 -16 -1 -45 -3 -62 -4 -49 -3 -78 5 -78 22 0 12 7 13 28 8
15 -4 44 -8 65 -8z m-145 -178 c45 -19 48 -23 32 -42 -6 -7 -17 -21 -25 -32
-13 -20 -14 -20 -39 4 -14 13 -23 27 -21 32 3 4 -7 21 -21 39 l-27 31 29 -7
c16 -3 48 -15 72 -25z m318 0 c-14 -17 -24 -34 -21 -38 2 -5 -6 -18 -20 -31
-24 -22 -45 -20 -45 5 0 8 -8 18 -17 24 -25 14 -7 29 59 52 71 25 74 24 44
-12z m-136 -43 c24 -10 28 -15 16 -19 -9 -4 -16 -1 -16 6 0 8 -3 8 -9 -2 -5
-8 -26 -14 -51 -14 -25 0 -46 6 -51 14 -6 10 -9 10 -9 2 0 -7 -7 -10 -16 -6
-13 5 -10 9 12 19 39 17 85 17 124 0z m-150 -50 c0 -2 -7 -7 -16 -10 -8 -3
-12 -2 -9 4 6 10 25 14 25 6z m205 -6 c3 -6 -1 -7 -9 -4 -18 7 -21 14 -7 14 6
0 13 -4 16 -10z"/>
<path d="M2347 1989 c12 -12 25 -20 28 -17 3 3 -7 13 -22 23 l-28 17 22 -23z"/>
<path d="M2640 1990 c-14 -11 -20 -20 -14 -20 6 0 19 9 29 20 23 25 17 25 -15
0z"/>
<path d="M2490 1995 c0 -8 5 -15 10 -15 6 0 10 7 10 15 0 8 -4 15 -10 15 -5 0
-10 -7 -10 -15z"/>
<path d="M2854 2516 c11 -9 27 -16 35 -15 14 0 14 1 1 6 -8 3 -24 10 -35 15
-20 9 -20 9 -1 -6z"/>
<path d="M2010 2510 c-9 -6 -10 -10 -3 -10 6 0 15 5 18 10 8 12 4 12 -15 0z"/>
<path d="M2970 2518 c0 -2 9 -11 20 -21 11 -9 20 -13 20 -7 0 5 -9 14 -20 20
-11 6 -20 9 -20 8z"/>
<path d="M2108 2503 c7 -3 16 -2 19 1 4 3 -2 6 -13 5 -11 0 -14 -3 -6 -6z"/>
<path d="M1973 2395 c0 -27 2 -38 4 -22 2 15 2 37 0 50 -2 12 -4 0 -4 -28z"/>
<path d="M3023 2395 c0 -27 2 -38 4 -22 2 15 2 37 0 50 -2 12 -4 0 -4 -28z"/>
<path d="M0 420 l0 -420 2500 0 2500 0 0 420 0 420 -2500 0 -2500 0 0 -420z"/>
</g>
</svg>
